# xmcd CD database file
#
# Track frame offsets:
#	182
#	14352
#	38455
#	57862
#	74172
#	94075
#	105537
#	116892
#	132917
#	146315
#	165262
#	200602
#	218465
#
# Disc length: 3113 seconds
#
# Revision: 3
# Processed by: cddbd v1.5.2PL0 Copyright (c) Steve Scherf et al.
# Submitted via: CDex 1.70beta2
#
DISCID=b00c270d
DTITLE=Julie Driscoll, Brian Auger and The Trinity - Julie Driscoll
DYEAR=1969
DGENRE=60s Pop
TTITLE0=Let The Sunshine In (Ragni-Rado-Macdermot) (1969)
TTITLE1=The Road To Cairo (Ackles) (1968)
TTITLE2=Take Me To The Water, I'm Going Back Home (Trad. Simone) (1969)
TTITLE3=Why Am I Treated So Bad (Stevenson) (1967)
TTITLE4=Light My Fire (The Doors) (1967)
TTITLE5=Save Me (Ousley-Franklin) (1967)
TTITLE6=A Kind Of Love In (Driscoll-Auger) (1967)
TTITLE7=This Wheels On Fire (Dylan-Danko)
TTITLE8=Break It Up (Usher)
TTITLE9=Tramp (Fulsom-McCracklin) (1967)
TTITLE10=Season Of The Witch (Leitch) (1967)
TTITLE11=Save The Country (Nyro) (1969)
TTITLE12=Indian Rope Man (Roth-Price-Havens) (1969)
EXTD=YEAR: 1969
EXTT0=
EXTT1=
EXTT2=
EXTT3=
EXTT4=
EXTT5=
EXTT6=
EXTT7=
EXTT8=
EXTT9=
EXTT10=
EXTT11=
EXTT12=
PLAYORDER=
